<svg viewBox="0 0 24 24" xmlns="http://www.w3.org/2000/svg" id="Paginate-Filter-Music--Streamline-Ultimate.svg" height="24" width="24"><desc>Paginate Filter Music Streamline Icon: https://streamlinehq.com</desc><path d="M23.5 1.5a1 1 0 0 0 -1 -1h-18a1 1 0 0 0 -1 1v18a1 1 0 0 0 1 1h18a1 1 0 0 0 1 -1Z" fill="none" stroke="#ffffff" stroke-linecap="round" stroke-linejoin="round" stroke-width="1"></path><path d="M3.5 4.5h-2a1 1 0 0 0 -1 1v17a1 1 0 0 0 1 1h17a1 1 0 0 0 1 -1v-2" fill="none" stroke="#ffffff" stroke-linecap="round" stroke-linejoin="round" stroke-width="1"></path><path d="M7.496 14.293a2 2 0 1 0 4 0 2 2 0 1 0 -4 0Z" fill="none" stroke="#ffffff" stroke-linecap="round" stroke-linejoin="round" stroke-width="1"></path><path d="M15.496 12.293a2 2 0 1 0 4 0 2 2 0 1 0 -4 0Z" fill="none" stroke="#ffffff" stroke-linecap="round" stroke-linejoin="round" stroke-width="1"></path><path d="M19.5 12.293V5.5a1 1 0 0 0 -1.184 -0.983l-6 1.125a1 1 0 0 0 -0.816 0.982v7.67" fill="none" stroke="#ffffff" stroke-linecap="round" stroke-linejoin="round" stroke-width="1"></path></svg>